<?xml version="1.0" standalone="no"?>
<!DOCTYPE svg PUBLIC "-//W3C//DTD SVG 20010904//EN"
 "http://www.w3.org/TR/2001/REC-SVG-20010904/DTD/svg10.dtd">
<svg version="1.0" xmlns="http://www.w3.org/2000/svg"
 width="339.000000pt" height="339.000000pt" viewBox="0 0 339.000000 339.000000"
 preserveAspectRatio="xMidYMid meet">
<metadata>
Created by potrace 1.14, written by Peter Selinger 2001-2017
</metadata>
<g transform="translate(0.000000,339.000000) scale(0.100000,-0.100000)"
fill="#000000" stroke="none">
<path d="M493 2493 l-443 -3 0 -791 0 -790 558 3 c539 4 560 5 637 26 164 46
283 128 333 233 50 104 49 248 -3 354 -33 68 -109 143 -183 182 l-60 30 52 35
c186 125 210 404 48 563 -88 87 -255 148 -432 157 -36 2 -264 2 -507 1z m439
-395 c44 -20 58 -43 58 -101 0 -48 -22 -77 -73 -96 -16 -6 -98 -11 -183 -11
l-154 0 0 116 0 116 158 -4 c113 -3 167 -9 194 -20z m74 -590 c41 -22 54 -39
61 -82 8 -54 -13 -95 -61 -117 -35 -16 -68 -19 -233 -19 l-193 0 0 121 0 121
198 -4 c157 -3 203 -7 228 -20z"/>
<path d="M1800 1700 l0 -790 270 0 270 0 0 200 0 200 68 0 68 0 135 -200 134
-199 288 -1 c158 0 287 2 287 5 0 3 -72 112 -160 241 -88 129 -160 237 -160
239 0 2 25 20 55 40 111 74 190 189 221 322 21 90 14 254 -15 337 -71 202
-242 333 -499 385 -33 7 -224 11 -507 11 l-455 0 0 -790z m856 349 c61 -31 84
-74 84 -155 0 -76 -26 -119 -90 -151 -39 -20 -59 -23 -177 -23 l-133 0 0 181
0 182 134 -5 c117 -4 140 -8 182 -29z"/>
</g>
</svg>
